<?xml version="1.0" standalone="no"?>
<!DOCTYPE svg PUBLIC "-//W3C//DTD SVG 20010904//EN"
 "http://www.w3.org/TR/2001/REC-SVG-20010904/DTD/svg10.dtd">
<svg version="1.0" xmlns="http://www.w3.org/2000/svg"
 width="32.000000pt" height="32.000000pt" viewBox="0 0 32.000000 32.000000"
 preserveAspectRatio="xMidYMid meet">

<g transform="translate(0.000000,32.000000) scale(0.100000,-0.100000)"
fill="#000000" stroke="none">
<path d="M34 237 c-9 -24 0 -162 11 -162 6 0 11 15 13 34 l3 34 40 -39 c50
-49 62 -37 16 17 l-36 41 31 39 c42 52 25 65 -18 15 l-34 -39 0 31 c0 33 -17
52 -26 29z"/>
<path d="M167 244 c-13 -14 6 -24 44 -24 l39 0 -45 -62 c-61 -84 -60 -90 18
-86 71 3 83 21 18 28 l-43 5 46 63 c26 35 44 67 41 72 -7 11 -108 14 -118 4z"/>
</g>
</svg>
